<svg xmlns="http://www.w3.org/2000/svg" width="109.421" height="125.654" viewBox="0 0 109.421 125.654">
  <g id="Group_14" data-name="Group 14" transform="translate(-1834.895 -1883.437)">
    <path id="Path_35" data-name="Path 35" d="M7282.922,2054.287s-4.406,9.171-4.029,14.648,5.54,7.259,5.54,7.259v9.821l12.843,25.181v7.3a5.027,5.027,0,0,1-.925,3.525,21.747,21.747,0,0,1-4.112,4.029h-9.317l-5.792-1.259-3.777-.728-2.77-.783-2.015-7.806-3.021-4.281-4.533-1.763-7.806-2.266-6.8-5.036-4.029-4.784a5.8,5.8,0,0,1-1.007-2.518,17.089,17.089,0,0,1,0-3.777V2084h3.274v7.051l1.763,3.777,3.021,3.777,3.777,1.511,3.525,2.014,4.281,1.763h3.525l2.77,2.266,3.273,3.274,1.259,1.763,1.511,4.281,1.259,3.022h0l4.281,2.266-4.281-2.266,12.5,2.266,5.126-2.266v-5.792l-1.511-4.281-4.784-8.31-3.022-6.3-2.015-2.77-2.014-3.525v-11.332l-5.54-5.54,1.259-11.08-7.3,5.288H7258.5s-3.021-.49-5.288-.994-1.637-.518-3.777-1.021a13.554,13.554,0,0,0-4.784,0h-5.54l-7.554,2.015a23.042,23.042,0,0,0-5.288,2.014,40.378,40.378,0,0,0-5.54,3.777l-2.015,2.266-1.763,2.266-2.518,3.525-3.021,3.777-2.267,5.036-1.511,3.525-1.763,6.3v1.259l1.763,3.525,31.477,42.808V2111.2h5.54l-1.007,48.1-44.067-59.176s1.486-6.61,3.5-12.591,3.606-5.731,6.068-9.949a17.87,17.87,0,0,1,5.288-5.96l6.3-6.754,7.806-4.029a72.6,72.6,0,0,1,11.583-3.022c5.225-.755,4.092,0,9.317,0s6.19,1.322,9.967,1.763,5.142,0,5.142,0l14.354-8.562,5.54-1.742Z" transform="translate(-5353 -158)" fill="#f1f90d"/>
    <path id="Path_36" data-name="Path 36" d="M7256.991,2117.743v48.348h-19.647l-7.683-2.2s-2.011,0-5.915-2.082-5.854-2.455-9.569-5.288a55.21,55.21,0,0,1-7.555-7.53l-7.806-9.089-4.533-8.813s-2.455-6.232-3.273-9.569a50.865,50.865,0,0,1-1.116-6.65v-16.2c0-7.869.3-6.362,1.116-12.406s.629-6.169,3.273-11.332a37.093,37.093,0,0,1,7.3-9.317l12.591-11.583,9.569-6.3,14.857-7.3h15.612v11.835h-5.288v-6.043h-6.3l-6.547,1.511-6.3,2.77-11.08,6.547-12.087,11.332-5.036,6.547-2.77,6.547-3.273,15.361v16.116a60.769,60.769,0,0,0,1.15,8.562,9.923,9.923,0,0,0,2.123,4.533l2.77,5.036,4.029,7.806,8.562,10.1s-3.1-1.844,4.032,2.8.5.447.5.447l6.547,4.281,7.051,2.266,3.777,1.763,5.036,1.259h11.332v-44.067Z" transform="translate(-5355 -157)" fill="#f1f90d"/>
  </g>
</svg>
